<svg width="505" height="341" viewBox="0 0 505 341" fill="none" xmlns="http://www.w3.org/2000/svg">
<path d="M499.62 6.39629e-09H157.909C156.607 0.00113523 155.359 0.518359 154.439 1.43812C153.519 2.35789 153.001 3.60502 153 4.90575V128.343H235.697C237.936 128.345 240.082 129.235 241.665 130.817C243.248 132.399 244.139 134.544 244.142 136.781V241.214H499.62C500.33 241.214 501.031 241.06 501.675 240.763C502.32 240.466 502.892 240.032 503.352 239.493C503.391 239.45 503.427 239.405 503.459 239.358C503.752 239 503.99 238.599 504.163 238.171C504.41 237.581 504.536 236.948 504.534 236.308V4.90575C504.533 3.60413 504.015 2.35631 503.093 1.43645C502.172 0.51659 500.922 -6.63773e-05 499.62 6.39629e-09V6.39629e-09Z" fill="#F2F2F2"/>
<path d="M503.83 21.663H153.699V23.0654H503.83V21.663Z" fill="#CCCCCC"/>
<path d="M166.092 16.7265C168.417 16.7265 170.302 14.8429 170.302 12.5193C170.302 10.1957 168.417 8.31201 166.092 8.31201C163.767 8.31201 161.882 10.1957 161.882 12.5193C161.882 14.8429 163.767 16.7265 166.092 16.7265Z" fill="#CCCCCC"/>
<path d="M177.731 16.7265C180.056 16.7265 181.941 14.8429 181.941 12.5193C181.941 10.1957 180.056 8.31201 177.731 8.31201C175.405 8.31201 173.521 10.1957 173.521 12.5193C173.521 14.8429 175.405 16.7265 177.731 16.7265Z" fill="#CCCCCC"/>
<path d="M189.834 16.7265C192.16 16.7265 194.044 14.8429 194.044 12.5193C194.044 10.1957 192.16 8.31201 189.834 8.31201C187.509 8.31201 185.625 10.1957 185.625 12.5193C185.625 14.8429 187.509 16.7265 189.834 16.7265Z" fill="#CCCCCC"/>
<path d="M416.585 52.2839H240.944C239.003 52.2839 237.142 53.0545 235.769 54.426C234.397 55.7976 233.626 57.6579 233.626 59.5975C233.626 61.5372 234.397 63.3975 235.769 64.769C237.142 66.1406 239.003 66.9112 240.944 66.9112H416.585C418.526 66.9112 420.387 66.1406 421.76 64.769C423.132 63.3975 423.903 61.5372 423.903 59.5975C423.903 57.6579 423.132 55.7976 421.76 54.426C420.387 53.0545 418.526 52.2839 416.585 52.2839V52.2839ZM416.585 65.786H240.944C239.302 65.786 237.727 65.134 236.566 63.9734C235.404 62.8129 234.752 61.2388 234.752 59.5975C234.752 57.9563 235.404 56.3822 236.566 55.2217C237.727 54.0611 239.302 53.4091 240.944 53.4091H416.585C418.227 53.4091 419.802 54.0611 420.964 55.2217C422.125 56.3822 422.777 57.9563 422.777 59.5975C422.777 61.2388 422.125 62.8129 420.964 63.9734C419.802 65.134 418.227 65.786 416.585 65.786Z" fill="#CCCCCC"/>
<path d="M470.33 110.551H294.689C292.749 110.551 290.887 111.321 289.515 112.693C288.142 114.065 287.371 115.925 287.371 117.865C287.371 119.804 288.142 121.664 289.515 123.036C290.887 124.408 292.749 125.178 294.689 125.178H470.33C472.271 125.178 474.132 124.408 475.505 123.036C476.877 121.664 477.648 119.804 477.648 117.865C477.648 115.925 476.877 114.065 475.505 112.693C474.132 111.321 472.271 110.551 470.33 110.551V110.551Z" fill="white"/>
<path d="M470.33 137.555H294.689C292.749 137.555 290.887 138.325 289.515 139.697C288.142 141.069 287.371 142.929 287.371 144.869C287.371 146.808 288.142 148.668 289.515 150.04C290.887 151.412 292.749 152.182 294.689 152.182H470.33C472.271 152.182 474.132 151.412 475.505 150.04C476.877 148.668 477.648 146.808 477.648 144.869C477.648 142.929 476.877 141.069 475.505 139.697C474.132 138.325 472.271 137.555 470.33 137.555V137.555Z" fill="white"/>
<path d="M470.33 164.559H294.689C292.749 164.559 290.887 165.33 289.515 166.701C288.142 168.073 287.371 169.933 287.371 171.873C287.371 173.812 288.142 175.673 289.515 177.044C290.887 178.416 292.749 179.186 294.689 179.186H470.33C472.271 179.186 474.132 178.416 475.505 177.044C476.877 175.673 477.648 173.812 477.648 171.873C477.648 169.933 476.877 168.073 475.505 166.701C474.132 165.33 472.271 164.559 470.33 164.559V164.559Z" fill="white"/>
<path d="M267.305 95.4553H187.355C185.64 95.4574 183.996 96.139 182.784 97.3509C181.571 98.5627 180.889 100.206 180.887 101.919V127.343H182.013V101.919C182.015 100.504 182.578 99.1474 183.58 98.1466C184.581 97.1458 185.939 96.5826 187.355 96.5805H267.305C268.722 96.5817 270.08 97.1446 271.082 98.1456C272.083 99.1466 272.647 100.504 272.648 101.919V181.818C272.647 183.233 272.083 184.591 271.082 185.592C270.08 186.593 268.722 187.156 267.305 187.157H245.142V188.282H267.305C269.021 188.281 270.665 187.599 271.878 186.387C273.091 185.175 273.773 183.532 273.774 181.818V101.919C273.773 100.205 273.091 98.5619 271.878 97.3498C270.665 96.1378 269.021 95.4564 267.305 95.4553V95.4553Z" fill="#CCCCCC"/>
<path d="M59.4609 178.659C59.1781 178.67 47.1265 177.835 46.8188 177.825L47.9015 167.025L54.7657 166.818L67.8825 142.54C66.0633 139.073 68.3019 134.473 72.161 133.764C79.9376 131.998 82.609 144.225 74.8087 145.852L63.9594 175.519C63.619 176.438 63.0058 177.231 62.2019 177.792C61.3979 178.353 60.4416 178.656 59.4609 178.659V178.659Z" fill="#FFB8B8"/>
<path d="M27.6883 184.222C16.2201 184.25 15.2133 166.929 26.707 165.708C57.0998 163.873 53.2537 156.245 55.5617 178.746C55.6326 179.414 55.4357 180.082 55.0141 180.605C54.5925 181.127 53.9807 181.461 53.313 181.533L28.6837 184.168C28.3531 184.204 28.0208 184.222 27.6883 184.222V184.222Z" fill="#35A0EE"/>
<path d="M25.071 129.459C40.87 138.444 27.8998 162.149 11.8064 153.708C-3.99208 144.724 8.97808 121.018 25.071 129.459Z" fill="#FFB8B8"/>
<path d="M39.4342 333.514L46.3354 333.513L49.6191 306.91L39.4331 306.91L39.4342 333.514Z" fill="#FFB8B8"/>
<path d="M37.9555 339.918L59.6464 339.917C59.5635 328.732 45.0557 331.955 37.9551 331.543L37.9555 339.918Z" fill="#2F2E41"/>
<path d="M9.5978 333.514L16.499 333.513L19.7827 306.91L9.59668 306.91L9.5978 333.514Z" fill="#FFB8B8"/>
<path d="M8.11903 339.918L29.8099 339.917C29.7271 328.732 15.2193 331.955 8.11865 331.543L8.11903 339.918Z" fill="#2F2E41"/>
<path d="M17.4412 324.222C15.7732 323.765 6.70923 325.148 5.63952 323.332C1.90378 285.914 2.73419 249.295 11.0268 229.172L39.5392 227.428C45.9151 239.06 60.5712 316.246 51.7305 320.939L40.362 321.344C39.7137 321.365 39.0779 321.163 38.5613 320.771C38.0447 320.379 37.6788 319.821 37.5251 319.192L28.0141 265.117C25.6457 261.809 20.99 322.065 20.2212 321.839C20.121 322.504 19.785 323.11 19.2747 323.548C18.7643 323.985 18.1136 324.225 17.4412 324.222V324.222Z" fill="#2F2E41"/>
<path d="M10.1212 233.902C-4.2743 218.851 4.90811 178.5 4.44337 179.358C4.48281 178.369 7.74338 163.146 16.1778 160.648C22.8694 158.441 30.2759 165.043 31.1895 171.72L41.2136 230.878C41.2654 231.2 41.2408 231.529 41.1417 231.84C41.0425 232.151 40.8717 232.434 40.6429 232.667C41.1358 234.2 10.826 233.595 10.1212 233.902Z" fill="#35A0EE"/>
<path d="M14.7932 140.046C16.0574 139.248 16.6805 137.878 17.4164 136.63C21.2926 134.422 25.7485 139.763 29.8483 137.77C41.4409 126.648 29.525 123.367 18.8479 122.78C16.3257 122.47 14.1801 123.364 12.2732 124.84C-9.05459 123.213 1.17391 151.554 14.6343 155.297C17.0109 156.337 18.7937 154.232 16.6978 152.318C13.7981 149.28 10.2061 143.164 14.7932 140.046Z" fill="#2F2E41"/>
<path d="M236.163 127.218H81.9144C79.3773 127.221 76.9452 128.23 75.1512 130.023C73.3573 131.816 72.3478 134.246 72.3442 136.781V331.436C72.3478 333.972 73.3573 336.402 75.1512 338.195C76.9452 339.988 79.3773 340.996 81.9144 341H236.163C238.7 340.996 241.132 339.988 242.926 338.195C244.72 336.402 245.73 333.972 245.733 331.436V136.781C245.73 134.246 244.72 131.816 242.926 130.023C241.132 128.23 238.7 127.221 236.163 127.218V127.218ZM244.607 331.436C244.604 333.673 243.714 335.818 242.131 337.4C240.548 338.982 238.402 339.872 236.163 339.875H81.9144C79.6757 339.872 77.5294 338.982 75.9464 337.4C74.3634 335.818 73.4729 333.673 73.4701 331.436V136.781C73.4729 134.544 74.3634 132.399 75.9464 130.817C77.5294 129.235 79.6757 128.345 81.9144 128.343H236.163C238.402 128.345 240.548 129.235 242.131 130.817C243.714 132.399 244.604 134.544 244.607 136.781V331.436Z" fill="#3F3D56"/>
<path d="M38.4533 209.129C33.3695 209.704 31.1375 197.881 29.1938 194.869L39.3184 190.94L42.6129 196.962L70.2133 197.647C70.3773 197.425 70.5564 197.215 70.7494 197.017V197.017C76.223 191.29 85.137 199.871 79.684 205.586C79.0824 206.225 78.3522 206.729 77.5414 207.066C76.7306 207.402 75.8578 207.563 74.9803 207.537C74.1028 207.512 73.2407 207.301 72.4508 206.919C71.6608 206.536 70.9609 205.99 70.3973 205.318C69.7157 205.367 39.1198 209.146 38.4533 209.129Z" fill="#FFB8B8"/>
<path d="M30.9554 203.485C29.2627 205.115 16.2676 182.235 15.3182 181.588C8.7518 171.388 24.2104 161.318 30.89 171.462L44.3992 192.21C44.7648 192.773 44.8921 193.458 44.7531 194.114C44.614 194.771 44.2201 195.346 43.6576 195.712C43.0419 196 31.3899 204.105 30.9554 203.485Z" fill="#35A0EE"/>
<path d="M205.764 261.957H112.314C102.768 261.911 102.728 247.379 112.314 247.329H205.764C215.303 247.374 215.355 261.907 205.764 261.957Z" fill="#CCCCCC"/>
<path d="M205.764 288.961H112.314C102.768 288.915 102.728 274.383 112.314 274.334H205.764C215.303 274.378 215.355 288.911 205.764 288.961Z" fill="#CCCCCC"/>
<path d="M205.764 315.965H112.314C102.768 315.919 102.728 301.387 112.314 301.338H205.764C215.303 301.382 215.355 315.915 205.764 315.965Z" fill="#CCCCCC"/>
<path d="M240.201 147.22C237.306 147.22 234.476 146.362 232.069 144.755C229.662 143.148 227.786 140.863 226.679 138.191C225.571 135.518 225.281 132.577 225.846 129.739C226.41 126.902 227.804 124.296 229.851 122.25C231.898 120.204 234.506 118.811 237.346 118.247C240.185 117.682 243.128 117.972 245.802 119.079C248.477 120.186 250.763 122.061 252.371 124.467C253.979 126.872 254.838 129.7 254.838 132.593C254.834 136.471 253.29 140.189 250.546 142.931C247.802 145.673 244.082 147.216 240.201 147.22V147.22Z" fill="#35A0EE"/>
<path d="M247.422 130.03H241.229V122.998C241.229 122.849 241.17 122.706 241.065 122.6C240.959 122.495 240.816 122.436 240.666 122.436C240.517 122.436 240.374 122.495 240.268 122.6C240.163 122.706 240.104 122.849 240.104 122.998V130.03H233.911C233.762 130.03 233.619 130.09 233.513 130.195C233.407 130.301 233.348 130.444 233.348 130.593C233.348 130.742 233.407 130.885 233.513 130.991C233.619 131.096 233.762 131.156 233.911 131.156H240.104V138.188C240.104 138.337 240.163 138.48 240.268 138.586C240.374 138.691 240.517 138.751 240.666 138.751C240.816 138.751 240.959 138.691 241.065 138.586C241.17 138.48 241.229 138.337 241.229 138.188V131.156H247.422C247.571 131.156 247.714 131.096 247.82 130.991C247.926 130.885 247.985 130.742 247.985 130.593C247.985 130.444 247.926 130.301 247.82 130.195C247.714 130.09 247.571 130.03 247.422 130.03Z" fill="white"/>
<g filter="url(#filter0_d)">
<path d="M204.075 229.777H114.003C111.54 229.774 109.179 228.795 107.438 227.055C105.696 225.315 104.717 222.955 104.714 220.494V170.087C104.717 167.626 105.696 165.266 107.438 163.526C109.179 161.786 111.54 160.807 114.003 160.804H204.075C206.537 160.807 208.898 161.786 210.64 163.526C212.381 165.266 213.361 167.626 213.363 170.087V220.494C213.361 222.955 212.381 225.315 210.64 227.055C208.898 228.795 206.537 229.774 204.075 229.777Z" fill="#35A0EE"/>
</g>
<path d="M174.117 177.883C169.678 173.444 163.777 171 157.5 171C151.223 171 145.322 173.444 140.883 177.883C136.444 182.322 134 188.223 134 194.5C134 200.777 136.444 206.678 140.883 211.117C145.322 215.556 151.223 218 157.5 218C163.777 218 169.678 215.556 174.117 211.117C178.556 206.678 181 200.777 181 194.5C181 188.223 178.556 182.322 174.117 177.883V177.883ZM157.5 215.246C146.061 215.246 136.754 205.939 136.754 194.5C136.754 183.061 146.061 173.754 157.5 173.754C168.939 173.754 178.246 183.061 178.246 194.5C178.246 205.939 168.939 215.246 157.5 215.246V215.246Z" fill="white"/>
<path d="M168.404 193.384L151.88 181.45C151.461 181.147 150.908 181.105 150.447 181.34C149.987 181.576 149.697 182.049 149.697 182.566V206.434C149.697 206.951 149.987 207.424 150.447 207.66C150.645 207.761 150.86 207.811 151.074 207.811C151.358 207.811 151.641 207.723 151.88 207.55L168.404 195.616C168.762 195.357 168.975 194.942 168.975 194.5C168.975 194.058 168.762 193.643 168.404 193.384ZM152.451 203.741V185.259L165.246 194.5L152.451 203.741Z" fill="white"/>
<defs>
<filter id="filter0_d" x="99.7139" y="159.804" width="118.65" height="78.9728" filterUnits="userSpaceOnUse" color-interpolation-filters="sRGB">
<feFlood flood-opacity="0" result="BackgroundImageFix"/>
<feColorMatrix in="SourceAlpha" type="matrix" values="0 0 0 0 0 0 0 0 0 0 0 0 0 0 0 0 0 0 127 0"/>
<feOffset dy="4"/>
<feGaussianBlur stdDeviation="2.5"/>
<feColorMatrix type="matrix" values="0 0 0 0 0.921569 0 0 0 0 0.960784 0 0 0 0 0.992157 0 0 0 1 0"/>
<feBlend mode="normal" in2="BackgroundImageFix" result="effect1_dropShadow"/>
<feBlend mode="normal" in="SourceGraphic" in2="effect1_dropShadow" result="shape"/>
</filter>
</defs>
</svg>
